<svg width="20" height="14" viewBox="0 0 20 14" fill="none" xmlns="http://www.w3.org/2000/svg">
<path d="M2.37186 2.85654C2.38402 2.7498 2.36743 2.64205 2.32345 2.54203C2.27947 2.44201 2.20934 2.35256 2.11875 2.28095L0.252057 0.297556V0H6.05041L10.5326 8.66631L14.4727 0H20V0.296626L18.4022 1.64586C18.3354 1.69178 18.2837 1.75265 18.2525 1.82214C18.2214 1.89164 18.2119 1.96723 18.2251 2.04105V11.959C18.2116 12.0328 18.221 12.1084 18.2522 12.178C18.2834 12.2475 18.3352 12.3084 18.4022 12.3541L19.962 13.7034V14H12.1198V13.7034L13.7323 12.3207C13.8926 12.1812 13.8926 12.1393 13.8926 11.9264V3.90914L9.40097 13.9675H8.79456L3.5657 3.90914V10.6497C3.52246 10.9333 3.62898 11.2188 3.85573 11.4243L5.95655 13.6718V13.9684H0V13.6718L2.10082 11.4243C2.21134 11.3227 2.29341 11.1998 2.34047 11.0653C2.38753 10.9308 2.39828 10.7885 2.37186 10.6497V2.85654Z" fill="#77CFB5"/>
</svg>
