<svg width="22" height="21" viewBox="0 0 22 21" fill="none" xmlns="http://www.w3.org/2000/svg">
<path d="M11 0C4.92617 0 0 4.82023 0 10.7654C0 15.522 3.1515 19.5572 7.52308 20.981C8.07217 21.0805 8.25 20.7468 8.25 20.4633V18.4591C5.19017 19.1105 4.55308 17.1888 4.55308 17.1888C4.05258 15.9445 3.33117 15.6135 3.33117 15.6135C2.33292 14.9451 3.40725 14.9595 3.40725 14.9595C4.51183 15.0348 5.093 16.0692 5.093 16.0692C6.07383 17.7145 7.66608 17.2391 8.294 16.9636C8.39208 16.2684 8.67717 15.7929 8.9925 15.5247C6.54958 15.251 3.98108 14.3279 3.98108 10.2038C3.98108 9.02772 4.411 8.0678 5.11408 7.31422C5.00042 7.04239 4.62367 5.94701 5.22133 4.46497C5.22133 4.46497 6.14533 4.17609 8.24725 5.56843C9.1245 5.32979 10.065 5.21047 11 5.20599C11.935 5.21047 12.8764 5.32979 13.7555 5.56843C15.8556 4.17609 16.7778 4.46497 16.7778 4.46497C17.3763 5.94791 16.9996 7.04329 16.8859 7.31422C17.5917 8.0678 18.018 9.02862 18.018 10.2038C18.018 14.3387 15.4449 15.2493 12.9956 15.5157C13.3898 15.8494 13.75 16.5043 13.75 17.5091V20.4633C13.75 20.7495 13.926 21.0859 14.4843 20.9801C18.8522 19.5545 22 15.5202 22 10.7654C22 4.82023 17.0748 0 11 0Z" fill="#77CFB5"/>
</svg>
