<svg width="250" height="21" viewBox="0 0 250 21" fill="none" xmlns="http://www.w3.org/2000/svg">
<path fill-rule="evenodd" clip-rule="evenodd" d="M64.1474 15.5976C65.6174 15.5976 66.9648 14.9342 67.904 13.939C68.1081 13.6903 68.5573 13.2342 68.5165 13.3171L71.6605 16.7586C69.8639 18.9561 67.169 20.3659 64.1066 20.3659C58.6759 20.3659 54.3068 15.9293 54.3068 10.4147C54.3068 4.90003 58.6759 0.46344 64.1066 0.46344C67.0057 0.46344 69.6189 1.74881 71.4156 3.78051L68.2715 7.22198L67.5365 6.47564C66.6382 5.64637 65.454 5.14881 64.1474 5.14881C61.33 5.14881 59.0025 7.47076 59.0025 10.3732C59.0025 13.2342 61.2892 15.5976 64.1474 15.5976ZM185.093 20.0342C186.563 20.0342 187.583 18.9976 187.583 17.5049C187.583 16.0537 186.563 15.0586 185.093 15.0171C183.663 15.0171 182.643 16.0537 182.643 17.5049C182.643 18.9976 183.663 20.0342 185.093 20.0342ZM105.102 14.022C104.163 15.0171 102.816 15.6805 101.346 15.6805C98.4873 15.6805 96.2007 13.3171 96.2007 10.4561C96.2007 7.55368 98.5282 5.23173 101.346 5.23173C102.652 5.23173 103.836 5.72929 104.735 6.55856L105.47 7.3049L108.655 3.78051C106.858 1.74881 104.245 0.46344 101.346 0.46344C95.9149 0.46344 91.5459 4.90003 91.5459 10.4147C91.5459 15.9293 95.9149 20.3659 101.346 20.3659C104.408 20.3659 107.103 18.9561 108.9 16.7586L105.755 13.3171C105.755 13.3171 105.306 13.7732 105.102 14.022ZM198.853 15.5976C200.323 15.5976 201.67 14.9342 202.61 13.939C202.814 13.6903 203.263 13.2342 203.222 13.3171L206.366 16.7586C204.57 18.9561 201.875 20.3659 198.812 20.3659C193.382 20.3659 189.012 15.9293 189.012 10.4147C189.012 4.90003 193.382 0.46344 198.812 0.46344C201.711 0.46344 204.325 1.74881 206.121 3.78051L202.977 7.22198L202.242 6.47564C201.344 5.64637 200.16 5.14881 198.853 5.14881C196.036 5.14881 193.708 7.47076 193.708 10.3732C193.708 13.2342 195.995 15.5976 198.853 15.5976ZM14.0871 10C15.7612 9.25368 16.9862 7.96832 16.9862 5.72929V5.68783C16.9862 4.361 16.537 3.36588 15.7612 2.61954C14.6587 1.45856 13.0254 0.878074 10.6572 0.878074H0.857422V19.9512H10.698C15.1895 19.9512 17.8028 17.961 17.8028 14.6854V14.6439C17.8028 12.0317 16.3737 10.7464 14.0871 10ZM6.08395 5.10734H9.47303C11.0247 5.10734 11.8413 5.68783 11.8413 6.72442V6.76588C11.8413 7.88539 10.943 8.42442 9.35053 8.42442H6.08395V5.10734ZM12.6171 13.9805C12.6171 15.1 11.7188 15.722 10.1263 15.722H6.08395V12.1976H10.0447C11.8005 12.1976 12.5763 12.861 12.5763 13.8976V13.9805H12.6171ZM19.4361 0.878074H24.6626V15.3488H33.1149V19.9512H19.4361V0.878074ZM123.273 8.00978H116.576V0.878074H111.35V19.9927L116.576 19.9512V12.6951H123.273V19.9512H128.499V0.878074H123.273V8.00978ZM138.748 0.878074H143.729L151.692 19.9512H146.139L144.791 16.5512H137.605L136.257 19.9512H130.826L138.748 0.878074ZM141.157 7.09759L139.075 12.4878H143.24L141.157 7.09759ZM159.246 0.878074H154.019V19.9927H159.246V0.878074ZM174.354 10.9951V0.919538H179.58V19.9927H174.966L166.922 9.50246V19.9927H161.696V0.878074L166.596 0.919538L174.354 10.9951ZM91.6275 0.878074H85.4619L78.9695 8.63173V0.878074H73.743V19.9927H78.9695V15.0586L80.8886 12.9025L86.156 19.9927H92.3625L84.2777 9.08783L91.6275 0.878074ZM33.5232 10.4147C33.5232 4.90003 37.8923 0.46344 43.323 0.46344C48.7128 0.46344 53.1227 4.90003 53.1227 10.4147C53.1227 15.9293 48.7537 20.3659 43.323 20.3659C37.8923 20.3659 33.5232 15.9293 33.5232 10.4147ZM38.1781 10.4147C38.1781 13.2756 40.4647 15.639 43.323 15.639C46.1812 15.639 48.4678 13.3171 48.4678 10.4147C48.4678 7.55368 46.1812 5.19027 43.323 5.19027C40.5055 5.19027 38.1781 7.51222 38.1781 10.4147ZM216.615 0.46344C211.184 0.46344 206.815 4.90003 206.815 10.4147C206.815 15.9293 211.184 20.3659 216.615 20.3659C222.046 20.3659 226.415 15.9293 226.415 10.4147C226.415 4.90003 222.046 0.46344 216.615 0.46344ZM216.615 15.639C213.757 15.639 211.47 13.2756 211.47 10.4147C211.47 7.51222 213.798 5.19027 216.615 5.19027C219.473 5.19027 221.76 7.55368 221.76 10.4147C221.801 13.3171 219.473 15.639 216.615 15.639ZM244.218 8.63173L240.461 18.0025H236.827L233.07 8.63173V19.9098H228.171V0.878074H234.132L238.664 11.4098L243.197 0.878074H249.118V19.9098H244.218V8.63173Z" fill="#00FFB4"/>
</svg>
