<svg width="121" height="28" viewBox="0 0 121 28" fill="none" xmlns="http://www.w3.org/2000/svg">
<path fill-rule="evenodd" clip-rule="evenodd" d="M10.0001 23.9159C10.9329 23.9159 11.7948 23.7382 12.6118 23.4039C12.6188 23.4206 14.2818 26.1267 14.3057 26.1455C12.8004 26.9929 11.2272 27.3659 9.50731 27.3659C4.39464 27.3659 0.683594 23.8375 0.683594 18.2049C0.683594 12.5315 4.58418 9.00319 9.50731 9.00319C11.2601 9.00319 12.6417 9.40127 14.0334 10.1807C13.8798 10.4482 12.4472 12.9954 12.4422 13.0059C11.6168 12.6619 10.7358 12.4881 9.84748 12.4939C6.81779 12.4939 4.47046 14.5167 4.47046 18.2049C4.47046 21.6946 6.74198 23.9159 10.0001 23.9159ZM22.895 9.00319C27.9319 9.00319 31.5671 12.7321 31.5671 18.2049C31.5671 23.6379 27.9319 27.3659 22.895 27.3659C17.8971 27.3659 14.2618 23.639 14.2618 18.2049C14.2618 12.7321 17.8971 9.00319 22.895 9.00319ZM22.895 12.3748C20.0938 12.3748 18.0477 14.6358 18.0477 18.2049C18.0477 21.7353 20.0928 23.9953 22.896 23.9953C25.7741 23.9953 27.7812 21.7353 27.7812 18.2049C27.7812 14.6358 25.7741 12.3748 22.895 12.3748ZM33.9533 26.9699V9.39918H37.7013V26.9699H33.9533ZM33.4605 4.00478C33.4605 2.65697 34.5599 1.58708 35.8088 1.58708C37.0588 1.58708 38.1562 2.65697 38.1562 4.00583C38.1562 5.39439 37.0588 6.50503 35.8088 6.50503C34.5599 6.50503 33.4605 5.39439 33.4605 4.00583V4.00478ZM40.9724 10.5109C43.3197 9.55903 46.1998 9.00319 48.6598 9.00319C52.9395 9.00319 55.6659 10.7083 55.6659 15.666V26.9699H51.9549V16.0233C51.9549 13.4855 50.4405 12.5723 48.3566 12.5723C47.0308 12.5723 45.707 12.7708 44.7213 13.0884V26.9699H40.9724V10.5109ZM58.8054 0H62.5533V9.87666C63.3484 9.43992 64.9007 9.00319 66.3771 9.00319C71.2254 9.00319 74.8596 12.2547 74.8596 17.8873C74.8596 23.5585 71.2633 27.3659 65.0533 27.3659C62.9233 27.3593 60.81 26.9706 58.8054 26.2166V0ZM62.5533 23.639C63.2726 23.8762 64.2193 23.9942 65.166 23.9942C68.6117 23.9942 71.0738 22.0122 71.0738 17.9656C71.0738 14.5553 68.7643 12.5326 65.9242 12.5326C64.4478 12.5326 63.3105 12.9296 62.5523 13.3663L62.5533 23.639ZM85.6895 15.1896C85.6895 13.2859 84.3258 12.4145 82.4703 12.4145C80.5389 12.4145 79.0246 13.009 77.624 13.8417V10.4304C79.1004 9.55903 80.9928 9.00319 83.0768 9.00319C86.7489 9.00319 89.3616 10.5892 89.3616 14.991V26.6125C87.7715 27.0482 85.501 27.3272 83.6075 27.3272C79.252 27.3272 76.0707 25.9386 76.0707 21.9725C76.0707 18.4034 78.9857 16.6586 83.833 16.6586H85.6885L85.6895 15.1896ZM85.6895 19.2748H84.0993C81.4856 19.2748 79.7818 20.0688 79.7818 21.8534C79.7818 23.6776 81.3729 24.3913 83.6444 24.3913C84.2131 24.3913 85.0081 24.3119 85.6895 24.1927V19.2748ZM92.0881 22.2107C93.6413 23.4394 95.4958 24.1927 97.1997 24.1927C98.8667 24.1927 99.9651 23.5982 99.9651 22.2107C99.9651 20.7814 98.9804 20.2663 96.8226 19.6718C93.3381 18.8391 91.8606 17.3722 91.8606 14.3182C91.8606 10.748 94.4364 9.00319 97.8442 9.00319C99.7376 9.00319 101.252 9.43992 102.653 10.351V13.9608C101.176 12.8513 99.7376 12.1763 97.9579 12.1763C96.3298 12.1763 95.4589 13.009 95.4589 14.1594C95.4589 15.3087 96.1772 15.9042 98.1095 16.458C101.935 17.3314 103.6 18.8401 103.6 22.0122C103.6 25.7004 100.912 27.3659 97.2765 27.3659C95.3073 27.3659 93.338 26.8121 92.0891 25.9386L92.0881 22.2107ZM108.732 19.0773V19.1567C108.959 22.2891 111.533 23.9942 114.146 23.9942C116.456 23.9942 118.123 23.4394 119.788 22.2891V25.7412C118.274 26.8508 116.039 27.3659 113.882 27.3659C108.656 27.3659 105.097 23.8762 105.097 18.324C105.097 12.7321 108.579 9.00423 113.2 9.00423C118.084 9.00423 120.395 12.2954 120.395 17.0932V19.0784L108.732 19.0773ZM116.872 16.5384C116.797 13.801 115.511 12.2954 113.086 12.2954C110.928 12.2954 109.337 13.8825 108.846 16.5395L116.872 16.5384Z" fill="#00FFB4"/>
</svg>
