<svg width="165" height="34" viewBox="0 0 165 34" fill="none" xmlns="http://www.w3.org/2000/svg">
<g clip-path="url(#clip0_680_8415)">
<path d="M10.6073 14.2864L16.9739 7.68565L23.3431 14.2918L27.0455 10.4489L16.9739 0L6.90234 10.4463L10.6073 14.2864Z" fill="#00FFB4"/>
<path d="M0.580078 17.0005L4.28371 13.1591L7.98735 17.0005L4.28371 20.842L0.580078 17.0005Z" fill="#00FFB4"/>
<path d="M10.6067 19.7136L16.9732 26.317L23.3424 19.7109L27.0474 23.5483L27.0448 23.551L16.9732 34L6.90166 23.5564L6.89648 23.551L10.6067 19.7136Z" fill="#00FFB4"/>
<path d="M25.9531 17.0015L29.6568 13.1601L33.3604 17.0015L29.6568 20.8429L25.9531 17.0015Z" fill="#00FFB4"/>
<path d="M20.7297 16.9987L16.9729 13.0995L14.1948 15.9809L13.8737 16.3112L13.2161 16.9933L13.2109 16.9987L13.2161 17.0068L16.9729 20.9006L20.7297 17.0014L20.7322 16.9987H20.7297Z" fill="#00FFB4"/>
<path d="M39.1387 8.23895H47.1959C49.1947 8.23895 50.7067 8.77604 51.732 9.8502C52.1183 10.247 52.4228 10.721 52.6271 11.2436C52.8314 11.7662 52.9312 12.3263 52.9204 12.8901V12.9411C52.9274 13.403 52.8654 13.8631 52.7366 14.3053C52.6219 14.6859 52.4554 15.0476 52.2421 15.3795C52.0432 15.6924 51.8026 15.9744 51.5275 16.2173C51.2586 16.4573 50.9641 16.6646 50.6498 16.835C51.5564 17.1625 52.3716 17.7157 53.024 18.4462C53.6005 19.1265 53.8887 20.0664 53.8887 21.2659V21.3169C53.9051 22.066 53.748 22.8083 53.4305 23.4814C53.1228 24.1015 52.6718 24.6329 52.1178 25.0281C51.4914 25.4637 50.794 25.7776 50.0595 25.9546C49.1868 26.1693 48.2921 26.273 47.3953 26.2634H39.1387V8.23895ZM46.3881 15.5272C47.0852 15.5621 47.7789 15.4065 48.3999 15.076C48.642 14.9293 48.8397 14.7152 48.9706 14.458C49.1014 14.2007 49.1602 13.9106 49.1403 13.6205V13.5695C49.1532 13.3022 49.1008 13.0358 48.9881 12.795C48.8754 12.5543 48.7061 12.3468 48.4957 12.1919C48.0659 11.875 47.4453 11.7166 46.6341 11.7166H42.8644V15.5272H46.3881ZM47.4056 22.7912C48.1002 22.8316 48.7914 22.6667 49.3992 22.3159C49.636 22.1581 49.8277 21.9374 49.9543 21.6766C50.0809 21.4159 50.1378 21.1248 50.119 20.8335V20.7825C50.1283 20.5057 50.0721 20.2307 49.9552 19.9816C49.8383 19.7326 49.6643 19.517 49.4484 19.3539C49.0031 18.9958 48.2833 18.8168 47.2891 18.8168H42.8644V22.7912H47.4056Z" fill="#00FFB4"/>
<path d="M58.6895 8.23895H62.5135V26.2688H58.6895V8.23895Z" fill="#00FFB4"/>
<path d="M68.2988 8.23895H71.8252L79.9756 19.3351V8.23895H83.7505V26.2688H80.496L72.0789 14.8075V26.2688H68.2988V8.23895Z" fill="#00FFB4"/>
<path d="M95.3303 8.11005H98.8515L106.3 26.2688H102.308L100.718 22.2246H93.3678L91.7781 26.2688H87.8789L95.3303 8.11005ZM99.3538 18.7228L97.0391 12.874L94.7348 18.7228H99.3538Z" fill="#00FFB4"/>
<path d="M110.434 8.23895H113.96L122.105 19.3351V8.23895H125.88V26.2688H122.626L114.208 14.8075V26.2688H110.434V8.23895Z" fill="#00FFB4"/>
<path d="M139.644 26.5856C138.425 26.5965 137.217 26.3517 136.091 25.866C135.032 25.4123 134.071 24.7433 133.265 23.8983C132.459 23.0534 131.824 22.0497 131.397 20.9463C130.948 19.7921 130.72 18.5578 130.727 17.3129V17.2619C130.707 14.808 131.617 12.4442 133.262 10.6799C134.071 9.81813 135.039 9.13488 136.11 8.67126C137.274 8.17113 138.524 7.92171 139.784 7.93814C140.529 7.93237 141.273 8.00162 142.005 8.14492C142.632 8.26782 143.244 8.4577 143.833 8.71154C144.367 8.9448 144.875 9.23839 145.348 9.58698C145.808 9.92697 146.241 10.306 146.642 10.7202L144.211 13.6312C143.59 13.0368 142.893 12.5335 142.14 12.1354C141.4 11.7685 140.588 11.5847 139.768 11.5984C139.086 11.5908 138.41 11.7339 137.785 12.0182C137.16 12.3025 136.6 12.7214 136.143 13.2472C135.69 13.7716 135.336 14.3791 135.097 15.0384C134.848 15.7351 134.722 16.473 134.727 17.2162V17.2673C134.725 18.0094 134.85 18.746 135.097 19.4424C135.333 20.1041 135.684 20.715 136.133 21.2444C136.586 21.7767 137.144 22.2017 137.77 22.4909C138.395 22.78 139.073 22.9263 139.758 22.9201C140.629 22.9485 141.495 22.7539 142.277 22.3534C143.021 21.9325 143.71 21.4125 144.325 20.8066L146.759 23.3578C146.329 23.8415 145.864 24.2904 145.368 24.7005C144.881 25.1 144.352 25.4414 143.791 25.7183C143.194 26.01 142.565 26.2255 141.917 26.3601C141.169 26.5157 140.407 26.5913 139.644 26.5856Z" fill="#00FFB4"/>
<path d="M151.271 8.23895H164.354V11.7676H155.033V15.4251H163.241V18.9537H155.046V22.7402H164.484V26.2688H151.279L151.271 8.23895Z" fill="#00FFB4"/>
</g>
<defs>
<clipPath id="clip0_680_8415">
<rect width="163.9" height="34" fill="white" transform="translate(0.582031)"/>
</clipPath>
</defs>
</svg>
