<svg width="144" height="25" viewBox="0 0 144 25" fill="none" xmlns="http://www.w3.org/2000/svg">
<g clip-path="url(#clip0_680_8430)">
<path d="M13.1057 1.41663H26.4694C26.4613 1.59567 26.4002 1.7681 26.2941 1.91153C25.8417 2.69741 25.4345 3.51537 24.9901 4.30125C24.3612 5.42967 23.7731 6.57871 23.1341 7.70255C22.7292 8.51134 22.2723 9.29494 21.8403 10.09C19.2435 10.09 16.6468 10.09 14.05 10.09C13.9143 10.09 13.7797 10.0969 13.644 10.1049C13.5309 10.4073 13.3432 10.672 13.1916 10.9561C12.9937 11.2814 12.8331 11.6285 12.6374 11.9539C12.4305 12.3915 12.1443 12.7833 11.9362 13.2198C11.5065 13.9587 11.105 14.7091 10.6842 15.456C10.2454 16.2197 9.81639 16.9942 9.39717 17.7793C9.21975 18.0575 9.05631 18.3447 8.90745 18.6396C8.02867 20.1885 7.17817 21.7511 6.29827 23.2988C6.22363 23.4652 6.12532 23.6195 6.00647 23.757C4.50226 23.7467 2.99805 23.757 1.49384 23.757C1.30857 23.7606 1.12441 23.7868 0.945312 23.8349C0.945312 23.4133 1.22353 23.0754 1.41128 22.7214C1.63748 22.246 1.93945 21.8049 2.16678 21.3283C3.96957 18.0611 5.75313 14.7824 7.55027 11.5128C7.95742 10.8026 8.3069 10.0774 8.71631 9.38086C9.22752 8.46438 9.70366 7.52727 10.2364 6.6211C10.406 6.24191 10.6345 5.89479 10.8211 5.52476C11.4838 4.32989 12.1342 3.12816 12.7946 1.93329C12.873 1.74669 12.9778 1.57264 13.1057 1.41663Z" fill="#00FFB4"/>
<path d="M28.5908 6.22701C29.4809 4.65181 30.3404 3.05942 31.2429 1.49109H36.07C36.1403 1.49469 36.2101 1.50583 36.2781 1.52431C36.1175 1.77062 35.9829 2.03181 35.8415 2.28843C34.6774 4.40474 33.5166 6.5222 32.3592 8.6408C31.8729 9.50344 31.4205 10.3856 30.9274 11.2436L30.8788 11.2608L30.8697 11.3685C28.6002 15.4927 26.3382 19.6199 24.0838 23.7502C19.6526 23.7547 15.221 23.7547 10.7891 23.7502C11.0413 23.2163 11.3399 22.7065 11.6203 22.1876C12.8825 19.8368 14.1775 17.5066 15.4216 15.1558C18.1442 15.1513 20.8669 15.1513 23.5896 15.1558C25.2713 12.1887 26.9169 9.19871 28.5863 6.22701H28.5908Z" fill="#00FFB4"/>
<path d="M78.4082 1.43042V24.0217H82.2728V8.13564L89.3222 18.5984L96.3151 7.88704V24.0217H100.293V1.43042H96.0143L89.3505 11.8588L82.6121 1.43042H78.4082Z" fill="#00FFB4"/>
<path d="M60.3301 7.2569H62.8556V24.2118H60.3301V7.2569Z" fill="#00FFB4"/>
<path d="M60.1133 0.975525H63.0731V3.82006H60.1133V0.975525Z" fill="#00FFB4"/>
<path d="M67.6817 2.39832H70.3203V7.25682H75.5228V9.62478H70.3203V19.6969C70.3157 20.085 70.4046 20.4684 70.5793 20.8139C71.026 21.6731 72.2395 22.6927 75.5228 21.5012V23.6962C75.5228 23.6962 72.5257 25.4146 69.8113 23.8497C69.8113 23.8497 68.4632 23.2701 67.8966 21.3134C67.7494 20.7892 67.677 20.2464 67.6817 19.7015V9.58698L65.457 9.62478V7.25682H67.6998L67.6817 2.39832Z" fill="#00FFB4"/>
<path d="M104.363 1.43042V24.1741H121.139V20.5082H108.454V14.4743H119.632V10.8656H108.435V5.11926H121.008V1.43042H104.363Z" fill="#00FFB4"/>
<path d="M122.713 1.43042H127.492L132.977 9.41528L138.419 1.43042H143.198L135.394 12.5222L143.684 24.1546H138.651L132.996 15.6588L127.067 24.1741H122.289L130.46 12.623L122.713 1.43042Z" fill="#00FFB4"/>
<path d="M52.6014 12.3743C52.6014 12.3743 56.2964 10.9618 56.0702 6.89489C56.0702 6.89489 56.0396 2.9838 51.6921 1.77634C50.9693 1.58015 50.2237 1.48306 49.4754 1.48764H39.0488L39.0771 24.0789H50.3021C50.3021 24.0789 56.8709 23.9357 57.3335 18.0072C57.3335 18.0072 57.804 13.8636 52.6014 12.3743ZM41.744 3.82009H48.3987C53.6193 3.80176 53.4689 7.52497 53.4689 7.52497C53.5469 11.7729 48.7561 11.6869 48.7561 11.6869H41.744V3.82009ZM49.8871 21.6915H41.744V13.8258H49.5297C54.7503 13.8063 54.5999 17.5295 54.5999 17.5295C54.6779 21.7774 49.8871 21.6915 49.8871 21.6915Z" fill="#00FFB4"/>
</g>
<defs>
<clipPath id="clip0_680_8430">
<rect width="142.739" height="23.5318" fill="white" transform="translate(0.945312 0.975647)"/>
</clipPath>
</defs>
</svg>
