<svg width="254" height="38" viewBox="0 0 254 38" fill="none" xmlns="http://www.w3.org/2000/svg">
<path d="M61.0973 16.5469H57.9865C57.9297 16.1445 57.8137 15.787 57.6385 15.4745C57.4633 15.1573 57.2384 14.8874 56.9638 14.6648C56.6892 14.4423 56.3719 14.2718 56.0121 14.1535C55.657 14.0351 55.2711 13.9759 54.8544 13.9759C54.1016 13.9759 53.4458 14.1629 52.8871 14.537C52.3284 14.9063 51.8951 15.4461 51.5874 16.1563C51.2796 16.8618 51.1257 17.7188 51.1257 18.7273C51.1257 19.7643 51.2796 20.6355 51.5874 21.341C51.8999 22.0465 52.3355 22.5791 52.8942 22.939C53.4529 23.2988 54.0992 23.4787 54.8331 23.4787C55.245 23.4787 55.6262 23.4243 55.9766 23.3154C56.3317 23.2065 56.6465 23.0479 56.9212 22.8395C57.1958 22.6265 57.4231 22.3684 57.603 22.0654C57.7876 21.7624 57.9155 21.4167 57.9865 21.0285L61.0973 21.0427C61.0168 21.7103 60.8156 22.3542 60.4936 22.9745C60.1764 23.59 59.7479 24.1416 59.2081 24.6293C58.6731 25.1123 58.0339 25.4958 57.2905 25.7799C56.5518 26.0592 55.7161 26.1989 54.7834 26.1989C53.486 26.1989 52.326 25.9054 51.3033 25.3182C50.2853 24.7311 49.4804 23.8812 48.8885 22.7685C48.3014 21.6558 48.0078 20.3088 48.0078 18.7273C48.0078 17.1412 48.3061 15.7917 48.9027 14.679C49.4993 13.5663 50.3089 12.7188 51.3317 12.1364C52.3544 11.5493 53.505 11.2557 54.7834 11.2557C55.6262 11.2557 56.4074 11.3741 57.1271 11.6109C57.8516 11.8476 58.4931 12.1932 59.0518 12.6478C59.6106 13.0976 60.0651 13.6492 60.4155 14.3026C60.7706 14.956 60.9979 15.7041 61.0973 16.5469Z" fill="#00FFB4"/>
<path d="M79.069 18.7273C79.069 20.3135 78.7684 21.6629 78.167 22.7756C77.5705 23.8883 76.7561 24.7382 75.7239 25.3253C74.6964 25.9077 73.5411 26.1989 72.258 26.1989C70.9653 26.1989 69.8053 25.9054 68.7778 25.3182C67.7504 24.7311 66.9384 23.8812 66.3418 22.7685C65.7452 21.6558 65.4469 20.3088 65.4469 18.7273C65.4469 17.1412 65.7452 15.7917 66.3418 14.679C66.9384 13.5663 67.7504 12.7188 68.7778 12.1364C69.8053 11.5493 70.9653 11.2557 72.258 11.2557C73.5411 11.2557 74.6964 11.5493 75.7239 12.1364C76.7561 12.7188 77.5705 13.5663 78.167 14.679C78.7684 15.7917 79.069 17.1412 79.069 18.7273ZM75.9511 18.7273C75.9511 17.6999 75.7973 16.8334 75.4895 16.1279C75.1865 15.4224 74.758 14.8874 74.204 14.5228C73.65 14.1582 73.0013 13.9759 72.258 13.9759C71.5146 13.9759 70.8659 14.1582 70.3119 14.5228C69.758 14.8874 69.3271 15.4224 69.0193 16.1279C68.7163 16.8334 68.5648 17.6999 68.5648 18.7273C68.5648 19.7548 68.7163 20.6213 69.0193 21.3268C69.3271 22.0323 69.758 22.5673 70.3119 22.9319C70.8659 23.2965 71.5146 23.4787 72.258 23.4787C73.0013 23.4787 73.65 23.2965 74.204 22.9319C74.758 22.5673 75.1865 22.0323 75.4895 21.3268C75.7973 20.6213 75.9511 19.7548 75.9511 18.7273Z" fill="#00FFB4"/>
<path d="M86.8224 11.4546V26.0001H83.7471V11.4546H86.8224Z" fill="#00FFB4"/>
<path d="M103.919 11.4546V26.0001H101.263L94.9344 16.8452H94.8278V26.0001H91.7526V11.4546H94.4514L100.73 20.6023H100.858V11.4546H103.919Z" fill="#00FFB4"/>
<path d="M108.86 11.4546H112.652L116.658 21.2273H116.828L120.834 11.4546H124.627V26.0001H121.644V16.5327H121.523L117.759 25.929H115.727L111.963 16.4972H111.843V26.0001H108.86V11.4546Z" fill="#00FFB4"/>
<path d="M132.067 26.0001H128.772L133.793 11.4546H137.756L142.771 26.0001H139.475L135.832 14.7785H135.718L132.067 26.0001ZM131.862 20.2827H139.646V22.6833H131.862V20.2827Z" fill="#00FFB4"/>
<path d="M146.921 26.0001V11.4546H152.66C153.758 11.4546 154.696 11.6511 155.472 12.0441C156.254 12.4323 156.848 12.984 157.255 13.6989C157.667 14.4091 157.873 15.2448 157.873 16.206C157.873 17.1719 157.665 18.0029 157.248 18.6989C156.831 19.3902 156.228 19.9205 155.437 20.2898C154.651 20.6591 153.699 20.8438 152.582 20.8438H148.739V18.3722H152.085C152.672 18.3722 153.159 18.2917 153.548 18.1307C153.936 17.9698 154.225 17.7283 154.414 17.4063C154.608 17.0843 154.705 16.6842 154.705 16.206C154.705 15.7231 154.608 15.3159 154.414 14.9844C154.225 14.653 153.934 14.402 153.541 14.2316C153.152 14.0564 152.662 13.9688 152.07 13.9688H149.997V26.0001H146.921ZM154.776 19.3807L158.391 26.0001H154.997L151.46 19.3807H154.776Z" fill="#00FFB4"/>
<path d="M162.446 26.0001V11.4546H165.522V17.868H165.713L170.948 11.4546H174.634L169.236 17.9674L174.698 26.0001H171.019L167.034 20.0199L165.522 21.8665V26.0001H162.446Z" fill="#00FFB4"/>
<path d="M178.635 26.0001V11.4546H188.436V13.9901H181.711V17.456H187.932V19.9915H181.711V23.4645H188.465V26.0001H178.635Z" fill="#00FFB4"/>
<path d="M192.727 13.9901V11.4546H204.674V13.9901H200.22V26.0001H197.181V13.9901H192.727Z" fill="#00FFB4"/>
<path d="M221.211 16.5469H218.1C218.043 16.1445 217.927 15.787 217.752 15.4745C217.577 15.1573 217.352 14.8874 217.077 14.6648C216.802 14.4423 216.485 14.2718 216.125 14.1535C215.77 14.0351 215.384 13.9759 214.968 13.9759C214.215 13.9759 213.559 14.1629 213 14.537C212.442 14.9063 212.008 15.4461 211.701 16.1563C211.393 16.8618 211.239 17.7188 211.239 18.7273C211.239 19.7643 211.393 20.6355 211.701 21.341C212.013 22.0465 212.449 22.5791 213.007 22.939C213.566 23.2988 214.212 23.4787 214.946 23.4787C215.358 23.4787 215.739 23.4243 216.09 23.3154C216.445 23.2065 216.76 23.0479 217.034 22.8395C217.309 22.6265 217.536 22.3684 217.716 22.0654C217.901 21.7624 218.029 21.4167 218.1 21.0285L221.211 21.0427C221.13 21.7103 220.929 22.3542 220.607 22.9745C220.29 23.59 219.861 24.1416 219.321 24.6293C218.786 25.1123 218.147 25.4958 217.404 25.7799C216.665 26.0592 215.829 26.1989 214.897 26.1989C213.599 26.1989 212.439 25.9054 211.417 25.3182C210.399 24.7311 209.594 23.8812 209.002 22.7685C208.415 21.6558 208.121 20.3088 208.121 18.7273C208.121 17.1412 208.419 15.7917 209.016 14.679C209.613 13.5663 210.422 12.7188 211.445 12.1364C212.468 11.5493 213.618 11.2557 214.897 11.2557C215.739 11.2557 216.521 11.3741 217.24 11.6109C217.965 11.8476 218.606 12.1932 219.165 12.6478C219.724 13.0976 220.178 13.6492 220.529 14.3026C220.884 14.956 221.111 15.7041 221.211 16.5469Z" fill="#00FFB4"/>
<path d="M228.049 26.0001H224.754L229.775 11.4546H233.738L238.753 26.0001H235.457L231.814 14.7785H231.7L228.049 26.0001ZM227.844 20.2827H235.628V22.6833H227.844V20.2827Z" fill="#00FFB4"/>
<path d="M242.903 26.0001V11.4546H248.642C249.745 11.4546 250.685 11.6653 251.462 12.0867C252.238 12.5034 252.83 13.0834 253.237 13.8268C253.649 14.5654 253.855 15.4177 253.855 16.3836C253.855 17.3495 253.647 18.2018 253.23 18.9404C252.813 19.679 252.21 20.2543 251.419 20.6662C250.633 21.0782 249.681 21.2841 248.564 21.2841H244.906V18.8197H248.067C248.659 18.8197 249.146 18.7179 249.53 18.5143C249.918 18.3059 250.207 18.0195 250.396 17.6549C250.59 17.2856 250.687 16.8618 250.687 16.3836C250.687 15.9006 250.59 15.4792 250.396 15.1194C250.207 14.7548 249.918 14.4731 249.53 14.2742C249.141 14.0706 248.649 13.9688 248.052 13.9688H245.979V26.0001H242.903Z" fill="#00FFB4"/>
<path fill-rule="evenodd" clip-rule="evenodd" d="M32.1728 22.7078C31.5177 23.1263 30.7466 23.1786 30.1602 22.8438C29.4158 22.4186 29.0059 21.4239 29.0059 20.0361V15.8908C29.0059 13.8888 28.2237 12.4644 26.9158 12.0795C24.7001 11.4264 23.0325 14.172 22.4054 15.201L18.4963 21.6145V13.7759C18.452 11.9719 17.8737 10.8928 16.774 10.5677C16.0472 10.3525 14.9586 10.4392 13.9017 12.0758L5.14327 26.3053C3.97073 24.0531 3.35948 21.5452 3.36262 18.9996C3.36262 10.4272 10.1514 3.45556 18.4963 3.45556C26.8412 3.45556 33.6292 10.4295 33.6292 18.9996C33.6292 19.0146 33.6329 19.0273 33.6336 19.0407C33.6344 19.0542 33.6336 19.0691 33.6336 19.0841C33.7126 20.7438 33.1816 22.0643 32.175 22.7078H32.1728ZM36.9918 19.0011V18.9585V18.9159C36.9438 8.47525 28.6661 0 18.4955 0C8.29762 0 0 8.52308 0 19.0004C0 29.4777 8.29762 38 18.4963 38C23.174 38.0008 27.6742 36.1876 31.0709 32.9332C31.399 32.619 31.5923 32.1871 31.609 31.7302C31.6257 31.2734 31.4645 30.8282 31.1602 30.4903C30.8636 30.1596 30.4493 29.9616 30.0085 29.9399C29.5677 29.9182 29.1364 30.0745 28.8094 30.3744L28.7843 30.3976C26.0055 33.0607 22.3236 34.5445 18.4963 34.5437C14.028 34.5437 10.0081 32.5424 7.23559 29.3693L15.1337 16.5387V22.4544C15.1337 25.2942 16.223 26.2149 17.1359 26.4832C18.0487 26.7515 19.4468 26.5684 20.9136 24.1591L25.2585 17.0327C25.398 16.8025 25.5258 16.6045 25.6432 16.4349V20.0384C25.6432 22.6951 26.6949 24.8212 28.528 25.8674C30.1802 26.8105 32.2577 26.7253 33.9505 25.6432C36.0014 24.3294 37.107 21.9134 36.9918 19.0011Z" fill="#00FFB4"/>
</svg>
