<svg width="221" height="38" viewBox="0 0 221 38" fill="none" xmlns="http://www.w3.org/2000/svg">
<path d="M49.4219 26.0001H44.2656V11.4546H49.4645C50.9276 11.4546 52.187 11.7458 53.2429 12.3282C54.2988 12.9058 55.1108 13.7368 55.679 14.8211C56.2519 15.9054 56.5384 17.2027 56.5384 18.7131C56.5384 20.2283 56.2519 21.5304 55.679 22.6194C55.1108 23.7084 54.294 24.5441 53.2287 25.1265C52.1681 25.7089 50.8991 26.0001 49.4219 26.0001ZM47.3409 23.3651H49.294C50.2031 23.3651 50.9678 23.2041 51.5881 22.8822C52.2131 22.5555 52.6818 22.0512 52.9943 21.3694C53.3116 20.6828 53.4702 19.7974 53.4702 18.7131C53.4702 17.6383 53.3116 16.76 52.9943 16.0782C52.6818 15.3964 52.2154 14.8945 51.5952 14.5725C50.9749 14.2505 50.2102 14.0895 49.3011 14.0895H47.3409V23.3651Z" fill="#00FFB4"/>
<path d="M61.2164 26.0001V11.4546H71.0175V13.9901H64.2917V17.456H70.5133V19.9915H64.2917V23.4645H71.046V26.0001H61.2164Z" fill="#00FFB4"/>
<path d="M78.746 11.4546L81.6793 16.412H81.7929L84.7403 11.4546H88.2134L83.7744 18.7273L88.3128 26.0001H84.7759L81.7929 21.0356H81.6793L78.6963 26.0001H75.1736L79.7261 18.7273L75.2588 11.4546H78.746Z" fill="#00FFB4"/>
<path d="M107.479 15.6378C107.422 15.0649 107.178 14.6198 106.747 14.3026C106.316 13.9854 105.732 13.8268 104.993 13.8268C104.491 13.8268 104.067 13.8978 103.722 14.0398C103.376 14.1771 103.111 14.3689 102.926 14.6151C102.746 14.8613 102.656 15.1407 102.656 15.4532C102.647 15.7136 102.701 15.9409 102.82 16.135C102.943 16.3291 103.111 16.4972 103.324 16.6393C103.537 16.7766 103.783 16.8973 104.063 17.0015C104.342 17.1009 104.64 17.1861 104.958 17.2572L106.264 17.5697C106.899 17.7117 107.481 17.9011 108.012 18.1378C108.542 18.3746 109.001 18.6658 109.389 19.0114C109.778 19.3571 110.078 19.7643 110.291 20.233C110.509 20.7018 110.62 21.2392 110.625 21.8452C110.62 22.7354 110.393 23.5072 109.943 24.1606C109.498 24.8092 108.854 25.3135 108.012 25.6734C107.174 26.0285 106.163 26.206 104.979 26.206C103.805 26.206 102.782 26.0261 101.911 25.6662C101.044 25.3064 100.367 24.7737 99.8795 24.0682C99.3965 23.358 99.1432 22.4797 99.1195 21.4333H102.095C102.129 21.921 102.268 22.3282 102.514 22.6549C102.765 22.9769 103.099 23.2207 103.516 23.3864C103.937 23.5474 104.413 23.6279 104.943 23.6279C105.464 23.6279 105.916 23.5521 106.3 23.4006C106.688 23.2491 106.989 23.0384 107.202 22.7685C107.415 22.4986 107.522 22.1885 107.522 21.8381C107.522 21.5114 107.424 21.2368 107.23 21.0143C107.041 20.7917 106.762 20.6023 106.392 20.4461C106.028 20.2898 105.58 20.1478 105.05 20.0199L103.466 19.6222C102.24 19.3239 101.272 18.8575 100.561 18.2231C99.8511 17.5886 99.4983 16.734 99.5031 15.6591C99.4983 14.7785 99.7327 14.0091 100.206 13.3509C100.684 12.6928 101.34 12.179 102.174 11.8097C103.007 11.4404 103.954 11.2557 105.014 11.2557C106.094 11.2557 107.036 11.4404 107.841 11.8097C108.651 12.179 109.281 12.6928 109.73 13.3509C110.18 14.0091 110.412 14.7714 110.426 15.6378H107.479Z" fill="#00FFB4"/>
<path d="M127.928 16.5469H124.817C124.76 16.1445 124.644 15.787 124.469 15.4745C124.294 15.1573 124.069 14.8874 123.794 14.6648C123.519 14.4423 123.202 14.2718 122.842 14.1535C122.487 14.0351 122.101 13.9759 121.685 13.9759C120.932 13.9759 120.276 14.1629 119.717 14.537C119.159 14.9063 118.725 15.4461 118.418 16.1563C118.11 16.8618 117.956 17.7188 117.956 18.7273C117.956 19.7643 118.11 20.6355 118.418 21.341C118.73 22.0465 119.166 22.5791 119.724 22.939C120.283 23.2988 120.929 23.4787 121.663 23.4787C122.075 23.4787 122.456 23.4243 122.807 23.3154C123.162 23.2065 123.477 23.0479 123.751 22.8395C124.026 22.6265 124.253 22.3684 124.433 22.0654C124.618 21.7624 124.746 21.4167 124.817 21.0285L127.928 21.0427C127.847 21.7103 127.646 22.3542 127.324 22.9745C127.007 23.59 126.578 24.1416 126.038 24.6293C125.503 25.1123 124.864 25.4958 124.121 25.7799C123.382 26.0592 122.546 26.1989 121.614 26.1989C120.316 26.1989 119.156 25.9054 118.134 25.3182C117.116 24.7311 116.311 23.8812 115.719 22.7685C115.132 21.6558 114.838 20.3088 114.838 18.7273C114.838 17.1412 115.136 15.7917 115.733 14.679C116.33 13.5663 117.139 12.7188 118.162 12.1364C119.185 11.5493 120.335 11.2557 121.614 11.2557C122.456 11.2557 123.238 11.3741 123.957 11.6109C124.682 11.8476 125.323 12.1932 125.882 12.6478C126.441 13.0976 126.895 13.6492 127.246 14.3026C127.601 14.956 127.828 15.7041 127.928 16.5469Z" fill="#00FFB4"/>
<path d="M132.533 26.0001V11.4546H138.271C139.37 11.4546 140.307 11.6511 141.084 12.0441C141.865 12.4323 142.459 12.984 142.867 13.6989C143.279 14.4091 143.485 15.2448 143.485 16.206C143.485 17.1719 143.276 18.0029 142.86 18.6989C142.443 19.3902 141.839 19.9205 141.048 20.2898C140.262 20.6591 139.311 20.8438 138.193 20.8438H134.351V18.3722H137.696C138.283 18.3722 138.771 18.2917 139.159 18.1307C139.547 17.9698 139.836 17.7283 140.026 17.4063C140.22 17.0843 140.317 16.6842 140.317 16.206C140.317 15.7231 140.22 15.3159 140.026 14.9844C139.836 14.653 139.545 14.402 139.152 14.2316C138.764 14.0564 138.274 13.9688 137.682 13.9688H135.608V26.0001H132.533ZM140.388 19.3807L144.003 26.0001H140.608L137.071 19.3807H140.388Z" fill="#00FFB4"/>
<path d="M148.058 26.0001V11.4546H157.859V13.9901H151.133V17.456H157.355V19.9915H151.133V23.4645H157.887V26.0001H148.058Z" fill="#00FFB4"/>
<path d="M162.704 26.0001V11.4546H172.505V13.9901H165.779V17.456H172.001V19.9915H165.779V23.4645H172.533V26.0001H162.704Z" fill="#00FFB4"/>
<path d="M189.516 11.4546V26.0001H186.86L180.532 16.8452H180.425V26.0001H177.35V11.4546H180.049L186.327 20.6023H186.455V11.4546H189.516Z" fill="#00FFB4"/>
<path d="M194.457 26.0001V11.4546H204.258V13.9901H197.532V17.456H203.754V19.9915H197.532V23.4645H204.287V26.0001H194.457Z" fill="#00FFB4"/>
<path d="M209.103 26.0001V11.4546H214.842C215.94 11.4546 216.878 11.6511 217.654 12.0441C218.436 12.4323 219.03 12.984 219.437 13.6989C219.849 14.4091 220.055 15.2448 220.055 16.206C220.055 17.1719 219.846 18.0029 219.43 18.6989C219.013 19.3902 218.409 19.9205 217.619 20.2898C216.833 20.6591 215.881 20.8438 214.764 20.8438H210.921V18.3722H214.266C214.854 18.3722 215.341 18.2917 215.73 18.1307C216.118 17.9698 216.407 17.7283 216.596 17.4063C216.79 17.0843 216.887 16.6842 216.887 16.206C216.887 15.7231 216.79 15.3159 216.596 14.9844C216.407 14.653 216.115 14.402 215.722 14.2316C215.334 14.0564 214.844 13.9688 214.252 13.9688H212.178V26.0001H209.103ZM216.958 19.3807L220.573 26.0001H217.178L213.641 19.3807H216.958Z" fill="#00FFB4"/>
<path d="M25.0344 3.86242C16.506 -3.1328 9.26327 0.947747 6.70794 3.86242C5.65386 4.24572 4.19253 2.90417 3.59363 2.18548C3.97693 5.82682 10.5409 10.1709 13.775 11.8877C15.0207 10.642 17.3285 11.3687 18.3267 11.8877C25.3219 7.8631 27.7894 3.74263 28.1488 2.18548C26.9989 3.62285 25.5934 3.90234 25.0344 3.86242Z" fill="#00FFB4"/>
<path d="M2.87494 16.1999C2.29999 12.4627 3.75334 8.5738 4.55188 7.0965L6.70794 9.37234C5.84567 10.5501 6.02911 12.4184 6.22862 13.2053C6.80357 15.4093 9.42278 16.12 10.6605 16.1999V18.4757L6.70794 20.3922L10.6605 22.7878C12.3854 24.1294 15.0525 31.7315 16.1704 35.3648C17.2485 27.5791 21.0815 22.668 21.0815 22.7878C21.0815 22.8836 23.7168 21.2307 25.0344 20.3922L21.0815 18.1164V16.1999C22.998 16.1999 24.5153 15.0021 25.0344 14.4031C26.0887 13.2532 25.4737 10.5702 25.0344 9.37234L27.3101 7.0965C28.8433 8.91717 28.9072 15.2017 28.7475 18.1164C28.3642 22.4285 30.664 28.5373 31.8618 31.0527L27.6694 27.8186L24.3156 32.6099L21.0815 29.8549L15.6913 38L10.6605 29.8549L7.30665 32.6099L4.19234 27.8186L0 31.0527C2.01232 27.9863 2.7551 19.8731 2.87494 16.1999Z" fill="#00FFB4"/>
<path d="M12.8166 19.0746L11.0199 20.3922C13.5113 21.9254 15.1723 26.541 15.6913 28.6571C15.6913 25.7823 19.2848 21.9494 21.0815 20.3922L18.8056 19.0746C19.1888 15.1458 17.2085 13.5248 16.1704 13.2053C13.0082 13.5886 12.6169 17.2779 12.8166 19.0746Z" fill="#00FFB4"/>
<path d="M8.62424 11.1691C9.62241 11.9277 11.7385 13.4689 12.2177 13.5647C10.6206 14.1237 7.66599 14.4271 8.62424 11.1691Z" fill="#00FFB4"/>
<path d="M19.5156 13.5647C20.5138 13.0855 22.606 11.9596 22.9893 11.2888C23.149 12.5266 22.6778 14.7146 19.5156 13.5647Z" fill="#00FFB4"/>
</svg>
