<svg width="170" height="38" viewBox="0 0 170 38" fill="none" xmlns="http://www.w3.org/2000/svg">
<path fill-rule="evenodd" clip-rule="evenodd" d="M12.0116 2.14873C9.79907 3.32795 7.9889 4.32581 7.98928 4.3664C7.99027 4.47115 13.2995 7.22214 13.4879 7.21544C13.5736 7.2125 14.1955 6.91963 14.8697 6.5647L16.0958 5.91949L17.4348 6.6237L18.7738 7.32803L20.9666 6.31992C24.2707 4.80084 24.6138 4.63437 24.56 4.57845C24.4887 4.50424 23.3036 3.85285 20.0882 2.12094C18.5343 1.28389 17.0261 0.463181 16.7366 0.297112C16.4471 0.131043 16.1707 -0.00254901 16.1224 3.69181e-05C16.0741 0.00262285 14.2242 0.969541 12.0116 2.14873ZM2.30739 7.29017L0.00415531 8.50739V13.8496C0.00415531 16.7878 0.0343991 19.1917 0.071497 19.1917C0.108466 19.1917 1.24167 18.6891 2.58965 18.0748L5.04056 16.958V11.327L6.23823 11.9946C7.16113 12.5086 8.0846 13.0215 9.00862 13.5334L10.5813 14.4046L11.2811 14.0808C11.72 13.8774 12.158 13.6721 12.5951 13.4648C12.9329 13.3038 13.7621 12.9217 14.4377 12.6155C15.1133 12.3091 15.7387 12.001 15.8273 11.9308C15.9451 11.8375 14.5087 11.0254 10.5143 8.92675C7.50345 7.34482 4.9434 6.05554 4.82534 6.06172C4.70728 6.0679 3.57421 6.62063 2.30739 7.29017ZM24.9751 7.63199C23.4065 8.35653 22.1219 8.9783 22.1205 9.01375C22.1191 9.04917 22.9741 9.56929 24.0205 10.1694C25.0669 10.7696 25.9231 11.2928 25.9231 11.3322C25.9231 11.3715 24.9971 11.8306 23.8655 12.3525C22.7338 12.8743 19.8733 14.196 17.5087 15.2897L9.58556 18.9539C7.59251 19.8757 5.79601 20.7066 5.59334 20.8005C1.52243 22.686 0.403493 23.2092 0.249832 23.299C0.095315 23.3894 0.0603162 23.9147 0.0328141 26.5512L0 29.6957L2.05966 30.7694L4.11928 31.8431L6.97526 30.5243C8.54609 29.7991 9.83124 29.1677 9.83124 29.1212C9.83124 29.0748 9.54097 28.8813 9.18635 28.691C8.83157 28.5007 8.0992 28.0794 7.55871 27.7546C7.01827 27.4298 6.47936 27.1318 6.36104 27.0923C6.24277 27.0529 6.14771 26.9839 6.14964 26.939C6.15161 26.8941 7.40925 26.2829 8.94423 25.5807C11.9256 24.2168 14.2072 23.1657 19.1055 20.8993C21.2959 19.8861 23.4865 18.8735 25.6774 17.8615C27.6029 16.9723 29.8416 15.9337 30.6524 15.5537L32.1264 14.8626L32.1592 11.6823L32.1921 8.50213L30.1031 7.40509C28.9541 6.80178 27.972 6.30962 27.9205 6.31141C27.8691 6.31308 26.5437 6.90727 24.9751 7.63199ZM31.5667 19.1053C31.2589 19.2591 30.6509 19.5472 30.2155 19.7453C29.7802 19.9435 28.9541 20.3248 28.3798 20.5929L27.3357 21.0802L27.3119 23.8722C27.2987 25.4078 27.2435 26.6573 27.1891 26.6492C27.0655 26.6304 25.1085 25.6036 23.1414 24.5251C21.7216 23.7468 21.6324 23.7159 21.2988 23.8849C21.106 23.9827 19.9531 24.5117 18.737 25.0607C17.5209 25.6095 16.4863 26.0945 16.4376 26.1384C16.3891 26.1822 18.8366 27.5395 21.8768 29.1547L27.4042 32.0914L29.7654 30.8417C31.0639 30.1544 32.1681 29.5275 32.2189 29.4487C32.3334 29.2714 32.3236 18.8012 32.209 18.8154C32.1637 18.821 31.8746 18.9514 31.5667 19.1053ZM18.4914 31.3946C18.0818 31.5748 17.6723 31.7552 17.263 31.9359C16.0268 32.483 16.2691 32.5012 14.7985 31.7521C13.819 31.2533 13.3967 31.0993 13.2135 31.1741C13.076 31.2301 11.893 31.7747 10.5842 32.3842C9.27563 32.9937 8.15952 33.4924 8.104 33.4924C7.55494 33.4924 8.46774 34.0504 11.99 35.8683L16.1208 38L17.8589 37.1221C18.8148 36.6392 20.7429 35.6723 22.1436 34.9734C23.5442 34.2743 24.6728 33.6843 24.6517 33.662C24.6304 33.6398 23.4568 33.0232 22.0436 32.2918L19.4741 30.9621L18.4914 31.3946Z" fill="#00FFB4"/>
<path d="M50.4219 26.0001H45.2656V11.4546H50.4645C51.9276 11.4546 53.187 11.7458 54.2429 12.3282C55.2988 12.9058 56.1108 13.7368 56.679 14.8211C57.2519 15.9054 57.5384 17.2027 57.5384 18.7131C57.5384 20.2283 57.2519 21.5304 56.679 22.6194C56.1108 23.7084 55.294 24.5441 54.2287 25.1265C53.1681 25.7089 51.8991 26.0001 50.4219 26.0001ZM48.3409 23.3651H50.294C51.2031 23.3651 51.9678 23.2041 52.5881 22.8822C53.2131 22.5555 53.6818 22.0512 53.9943 21.3694C54.3116 20.6828 54.4702 19.7974 54.4702 18.7131C54.4702 17.6383 54.3116 16.76 53.9943 16.0782C53.6818 15.3964 53.2154 14.8945 52.5952 14.5725C51.9749 14.2505 51.2102 14.0895 50.3011 14.0895H48.3409V23.3651Z" fill="#00FFB4"/>
<path d="M62.2164 26.0001V11.4546H72.0175V13.9901H65.2917V17.456H71.5133V19.9915H65.2917V23.4645H72.046V26.0001H62.2164Z" fill="#00FFB4"/>
<path d="M79.746 11.4546L82.6793 16.412H82.7929L85.7403 11.4546H89.2134L84.7744 18.7273L89.3128 26.0001H85.7759L82.7929 21.0356H82.6793L79.6963 26.0001H76.1736L80.7261 18.7273L76.2588 11.4546H79.746Z" fill="#00FFB4"/>
<path d="M93.0054 13.9901V11.4546H104.951V13.9901H100.498V26.0001H97.4585V13.9901H93.0054Z" fill="#00FFB4"/>
<path d="M122.021 18.7273C122.021 20.3135 121.72 21.6629 121.119 22.7756C120.523 23.8883 119.708 24.7382 118.676 25.3253C117.649 25.9077 116.493 26.1989 115.21 26.1989C113.917 26.1989 112.757 25.9054 111.73 25.3182C110.703 24.7311 109.89 23.8812 109.294 22.7685C108.697 21.6558 108.399 20.3088 108.399 18.7273C108.399 17.1412 108.697 15.7917 109.294 14.679C109.89 13.5663 110.703 12.7188 111.73 12.1364C112.757 11.5493 113.917 11.2557 115.21 11.2557C116.493 11.2557 117.649 11.5493 118.676 12.1364C119.708 12.7188 120.523 13.5663 121.119 14.679C121.72 15.7917 122.021 17.1412 122.021 18.7273ZM118.903 18.7273C118.903 17.6999 118.749 16.8334 118.442 16.1279C118.139 15.4224 117.71 14.8874 117.156 14.5228C116.602 14.1582 115.953 13.9759 115.21 13.9759C114.467 13.9759 113.818 14.1582 113.264 14.5228C112.71 14.8874 112.279 15.4224 111.971 16.1279C111.668 16.8334 111.517 17.6999 111.517 18.7273C111.517 19.7548 111.668 20.6213 111.971 21.3268C112.279 22.0323 112.71 22.5673 113.264 22.9319C113.818 23.2965 114.467 23.4787 115.21 23.4787C115.953 23.4787 116.602 23.2965 117.156 22.9319C117.71 22.5673 118.139 22.0323 118.442 21.3268C118.749 20.6213 118.903 19.7548 118.903 18.7273Z" fill="#00FFB4"/>
<path d="M140.066 18.7273C140.066 20.3135 139.765 21.6629 139.164 22.7756C138.567 23.8883 137.753 24.7382 136.721 25.3253C135.693 25.9077 134.538 26.1989 133.255 26.1989C131.962 26.1989 130.802 25.9054 129.774 25.3182C128.747 24.7311 127.935 23.8812 127.338 22.7685C126.742 21.6558 126.444 20.3088 126.444 18.7273C126.444 17.1412 126.742 15.7917 127.338 14.679C127.935 13.5663 128.747 12.7188 129.774 12.1364C130.802 11.5493 131.962 11.2557 133.255 11.2557C134.538 11.2557 135.693 11.5493 136.721 12.1364C137.753 12.7188 138.567 13.5663 139.164 14.679C139.765 15.7917 140.066 17.1412 140.066 18.7273ZM136.948 18.7273C136.948 17.6999 136.794 16.8334 136.486 16.1279C136.183 15.4224 135.755 14.8874 135.201 14.5228C134.647 14.1582 133.998 13.9759 133.255 13.9759C132.511 13.9759 131.863 14.1582 131.309 14.5228C130.755 14.8874 130.324 15.4224 130.016 16.1279C129.713 16.8334 129.561 17.6999 129.561 18.7273C129.561 19.7548 129.713 20.6213 130.016 21.3268C130.324 22.0323 130.755 22.5673 131.309 22.9319C131.863 23.2965 132.511 23.4787 133.255 23.4787C133.998 23.4787 134.647 23.2965 135.201 22.9319C135.755 22.5673 136.183 22.0323 136.486 21.3268C136.794 20.6213 136.948 19.7548 136.948 18.7273Z" fill="#00FFB4"/>
<path d="M144.744 26.0001V11.4546H147.819V23.4645H154.055V26.0001H144.744Z" fill="#00FFB4"/>
<path d="M166.382 15.6378C166.325 15.0649 166.081 14.6198 165.65 14.3026C165.22 13.9854 164.635 13.8268 163.896 13.8268C163.394 13.8268 162.971 13.8978 162.625 14.0398C162.279 14.1771 162.014 14.3689 161.829 14.6151C161.65 14.8613 161.56 15.1407 161.56 15.4532C161.55 15.7136 161.605 15.9409 161.723 16.135C161.846 16.3291 162.014 16.4972 162.227 16.6393C162.44 16.7766 162.686 16.8973 162.966 17.0015C163.245 17.1009 163.543 17.1861 163.861 17.2572L165.168 17.5697C165.802 17.7117 166.384 17.9011 166.915 18.1378C167.445 18.3746 167.904 18.6658 168.293 19.0114C168.681 19.3571 168.981 19.7643 169.195 20.233C169.412 20.7018 169.524 21.2392 169.528 21.8452C169.524 22.7354 169.296 23.5072 168.847 24.1606C168.401 24.8092 167.758 25.3135 166.915 25.6734C166.077 26.0285 165.066 26.206 163.882 26.206C162.708 26.206 161.685 26.0261 160.814 25.6662C159.947 25.3064 159.27 24.7737 158.783 24.0682C158.3 23.358 158.046 22.4797 158.023 21.4333H160.999C161.032 21.921 161.171 22.3282 161.418 22.6549C161.668 22.9769 162.002 23.2207 162.419 23.3864C162.84 23.5474 163.316 23.6279 163.847 23.6279C164.367 23.6279 164.82 23.5521 165.203 23.4006C165.591 23.2491 165.892 23.0384 166.105 22.7685C166.318 22.4986 166.425 22.1885 166.425 21.8381C166.425 21.5114 166.328 21.2368 166.133 21.0143C165.944 20.7917 165.665 20.6023 165.295 20.4461C164.931 20.2898 164.483 20.1478 163.953 20.0199L162.369 19.6222C161.143 19.3239 160.175 18.8575 159.464 18.2231C158.754 17.5886 158.401 16.734 158.406 15.6591C158.401 14.7785 158.636 14.0091 159.109 13.3509C159.588 12.6928 160.243 12.179 161.077 11.8097C161.91 11.4404 162.857 11.2557 163.918 11.2557C164.997 11.2557 165.939 11.4404 166.744 11.8097C167.554 12.179 168.184 12.6928 168.633 13.3509C169.083 14.0091 169.315 14.7714 169.329 15.6378H166.382Z" fill="#00FFB4"/>
</svg>
