<svg width="159" height="46" viewBox="0 0 159 46" fill="none" xmlns="http://www.w3.org/2000/svg">
<path d="M15.6569 10.4634C15.1591 10.3921 15.1353 10.372 15.3719 10.3446C15.8232 10.2734 16.8673 10.3684 17.6027 10.5346C19.311 10.9375 20.853 11.9816 22.49 13.8087L22.9175 14.3074L23.5342 14.2161C26.1678 13.7886 28.8727 14.1247 31.1264 15.1652C31.7439 15.4493 32.7168 16.0194 32.8346 16.161C32.8821 16.2085 32.9534 16.5172 33.0009 16.826C33.1672 17.9405 33.0922 18.7709 32.7405 19.4122C32.5505 19.7675 32.5505 19.8625 32.6693 20.1713C32.7273 20.2917 32.818 20.3934 32.9311 20.4646C33.0442 20.5359 33.1751 20.5738 33.3087 20.5741C33.8779 20.5741 34.4716 19.6725 34.7558 18.4155L34.8745 17.9167L35.0883 18.1542C36.2978 19.5072 37.2469 21.3808 37.3894 22.7099L37.4369 23.0653L37.2232 22.7574C36.8678 22.2093 36.5353 21.8558 36.0849 21.547C35.2783 20.9989 34.4241 20.8354 32.1696 20.7166C30.1297 20.5979 28.9668 20.4325 27.8277 20.0525C25.8819 19.4131 24.8862 18.5818 22.5841 15.5206C21.5637 14.1686 20.9233 13.4332 20.283 12.8157C18.8835 11.46 17.484 10.7484 15.6569 10.4634Z" fill="#00FFB4"/>
<path d="M33.3416 13.4772C33.3891 12.5755 33.5078 11.9817 33.7682 11.4364C33.8595 11.2226 33.9582 11.0326 33.9819 11.0326C34.0057 11.0326 33.9582 11.1989 33.8906 11.3889C33.7006 11.9105 33.6768 12.6459 33.7992 13.4772C33.9655 14.5441 34.0368 14.6866 35.1759 15.8523C35.6975 16.4004 36.3141 17.0855 36.5517 17.3706L36.9554 17.8922L36.5453 17.5103C36.0474 17.0353 34.9083 16.1337 34.647 16.0158C34.4816 15.9245 34.4579 15.9245 34.3391 16.0396C34.2478 16.1309 34.2204 16.2762 34.2204 16.964C34.1966 18.0319 34.0541 18.6997 33.6978 19.3848C33.5087 19.7402 33.485 19.669 33.6503 19.2661C33.7691 18.9573 33.7929 18.8148 33.7929 17.7953C33.7929 15.7308 33.5563 15.232 32.1083 14.4016C31.753 14.1888 31.1354 13.88 30.7801 13.7138C30.5603 13.6256 30.3466 13.5227 30.1406 13.4059C30.1872 13.3584 31.5876 13.7613 32.133 13.9988C32.9634 14.3313 33.1059 14.3541 33.2009 14.3313C33.2703 14.26 33.3178 14.0682 33.3416 13.4772Z" fill="#00FFB4"/>
<path d="M16.6315 17.0115C15.6348 15.6357 14.9945 13.4999 15.137 11.9104L15.1845 11.4125L15.4211 11.46C15.9525 11.5745 16.4644 11.7663 16.9403 12.0292C17.8894 12.5992 18.316 13.3821 18.7198 15.3269C18.8376 15.897 19.0039 16.5611 19.0751 16.7749C19.1939 17.1302 19.6452 17.9624 20.0243 18.4831C20.2855 18.8622 20.1156 19.0523 19.5264 19.0047C18.6248 18.9097 17.4144 18.0794 16.6315 17.0115Z" fill="#00FFB4"/>
<path d="M32.1315 27.3333C27.4342 25.4351 25.7734 23.798 25.7734 21.0219C25.7734 20.6181 25.7963 20.2865 25.7963 20.2865C25.9365 20.3815 26.0713 20.4843 26.2 20.5944C27.1492 21.3535 28.2171 21.686 31.1824 22.1135C32.918 22.3739 33.911 22.5639 34.8127 22.8727C37.6838 23.8218 39.4634 25.7667 39.89 28.4003C40.0087 29.1595 39.9375 30.6074 39.7475 31.3665C39.5821 31.9594 39.108 33.051 38.9883 33.0748C38.9646 33.0748 38.9171 32.956 38.9171 32.766C38.8696 31.7694 38.369 30.8211 37.5413 30.0848C36.5456 29.2325 35.2667 28.5931 32.1315 27.3333Z" fill="#00FFB4"/>
<path d="M28.8011 28.116C28.7524 27.7772 28.6729 27.4436 28.5635 27.1193L28.4448 26.7631L28.6585 27.0243C28.9673 27.3806 29.2067 27.8072 29.4177 28.4001C29.5839 28.8514 29.5839 28.9939 29.5839 29.7292C29.5839 30.4409 29.5602 30.6071 29.4177 31.0082C29.2072 31.6055 28.8668 32.1487 28.421 32.5986C27.5669 33.4765 26.4524 33.9506 24.8583 34.1643C24.5733 34.1881 23.7667 34.2557 23.0551 34.3069C21.2755 34.3982 20.0889 34.591 19.021 34.971C18.8785 35.0185 18.7369 35.0623 18.7131 35.0422C18.6656 34.9947 19.401 34.5672 19.992 34.2831C20.8224 33.8793 21.6766 33.6656 23.5547 33.334C24.4801 33.1915 25.4293 33.0014 25.6668 32.9064C28.0182 32.1729 29.1811 30.3459 28.8011 28.116Z" fill="#00FFB4"/>
<path d="M30.9927 31.9357C30.3752 30.5837 30.2327 29.3027 30.5652 28.0926C30.6127 27.9738 30.6565 27.855 30.7077 27.855C30.8275 27.8895 30.94 27.9459 31.0393 28.0213C31.3243 28.2113 31.9172 28.5429 33.4364 29.3733C35.3547 30.4174 36.451 31.2241 37.2083 32.1495C37.8733 32.9561 38.2762 33.8851 38.4662 35.0206C38.5849 35.6601 38.5137 37.203 38.3474 37.8434C37.8258 39.8604 36.6391 41.4737 34.9071 42.3991C34.7481 42.492 34.5815 42.5714 34.4093 42.6366C34.3855 42.6366 34.4805 42.3991 34.6221 42.115C35.1921 40.9046 35.2616 39.7399 34.8359 38.4372C34.5746 37.6305 34.0292 36.6577 32.9376 35.0206C31.6322 33.1224 31.3207 32.6236 30.9927 31.9357Z" fill="#00FFB4"/>
<path d="M13.3035 39.1962C15.0592 37.7254 17.2179 36.6813 19.2112 36.3488C20.0653 36.2063 21.4885 36.2574 22.2723 36.4675C23.5293 36.8001 24.6685 37.5117 25.2614 38.3859C25.8305 39.2401 26.0917 39.9754 26.353 41.6124C26.4444 42.2519 26.5668 42.9179 26.5905 43.0594C26.7796 43.9145 27.1596 44.5786 27.6338 44.934C28.37 45.4821 29.6508 45.504 30.9087 45.0253C31.1215 44.9541 31.3116 44.8828 31.3116 44.9066C31.3591 44.9541 30.7187 45.3816 30.2912 45.5954C29.7674 45.8785 29.1779 46.0175 28.5829 45.9982C27.4447 45.9982 26.4718 45.4054 25.6889 44.2187C25.5226 43.9812 25.1901 43.2933 24.906 42.6529C24.0747 40.7346 23.6481 40.1618 22.6752 39.5214C21.8211 38.9733 20.7294 38.8564 19.899 39.2601C18.8083 39.7818 18.5233 41.1785 19.2824 42.0363C19.5912 42.3917 20.1603 42.6758 20.6344 42.7479C20.8398 42.775 21.0487 42.7577 21.2469 42.6971C21.445 42.6366 21.6279 42.5342 21.7831 42.397C21.9384 42.2598 22.0624 42.0908 22.1468 41.9016C22.2312 41.7124 22.274 41.5072 22.2723 41.3C22.2723 40.7309 22.0586 40.3993 21.4885 40.138C20.7294 39.8055 19.899 40.1855 19.9228 40.9209C19.9228 41.2297 20.0653 41.4188 20.3741 41.5604C20.5641 41.6517 20.5641 41.6517 20.4216 41.6316C19.7328 41.4891 19.5674 40.635 20.1128 40.0896C20.7769 39.4255 22.1773 39.7096 22.6514 40.6377C22.8415 41.0177 22.8652 41.7769 22.699 42.251C22.2961 43.3006 21.1569 43.8487 19.994 43.5381C19.2112 43.3244 18.8786 43.1106 17.9304 42.1386C16.2687 40.4304 15.6284 40.0978 13.256 39.7416L12.8047 39.6703L13.3035 39.1962Z" fill="#00FFB4"/>
<path fill-rule="evenodd" clip-rule="evenodd" d="M0.808525 1.02039C6.33711 7.73472 14.8547 18.1789 15.2822 18.7435C15.6376 19.2185 15.4951 19.6689 14.9022 20.0014C14.5697 20.1914 13.8818 20.3814 13.5502 20.3814C13.1214 20.3638 12.7148 20.1858 12.4111 19.8826C12.1973 19.6689 11.2719 18.3169 9.18453 15.0666C7.5941 12.5754 6.2421 10.5109 6.21835 10.4871C6.127 10.4396 6.127 10.4396 9.01827 15.6119C10.8453 18.8622 11.4382 20.0251 11.4382 20.1676C11.4382 20.4755 11.3468 20.6417 10.9641 21.0693C10.3246 21.7809 10.0387 22.5875 9.8249 24.2721C9.58739 26.1466 8.94702 27.4748 7.11999 29.7294C6.05209 31.0595 5.88583 31.2951 5.62548 31.8405C5.29296 32.5055 5.19796 32.8847 5.15045 33.7388C5.10295 34.6404 5.19796 35.2105 5.45922 36.0646C5.69674 36.8237 5.95709 37.3216 6.59837 38.2945C7.14648 39.1486 7.47626 39.789 7.47626 40.0302C7.47626 40.2202 7.52376 40.2202 8.3779 40.0302C10.4178 39.556 12.1023 38.7512 13.0277 37.7528C13.5977 37.1352 13.7393 36.8036 13.7393 35.9495C13.7393 35.4014 13.7156 35.2845 13.574 34.9528C13.3364 34.4303 12.8852 34.0037 11.9123 33.3396C10.6334 32.4617 10.0853 31.7492 9.94366 30.8009C9.8249 29.9943 9.96741 29.448 10.6745 27.9535C11.4053 26.4115 11.5999 25.7702 11.7186 24.2081C11.7899 23.2115 11.9077 22.8086 12.1927 22.4998C12.5015 22.1682 12.7618 22.0495 13.4981 21.9517C14.7076 21.7855 15.4905 21.4767 16.108 20.8838C16.6562 20.386 16.8909 19.8872 16.9147 19.1482L16.9384 18.6L16.6342 18.2703C15.5188 16.9913 0.0731463 0 0.000978705 0C-0.0218591 0 0.358163 0.450362 0.808525 1.02039ZM8.09288 34.7592C8.21715 34.5433 8.2544 34.2881 8.19702 34.0457C8.13965 33.8033 7.99197 33.592 7.78411 33.4547C7.38125 33.1934 6.76098 33.3122 6.76098 33.6675C6.76073 33.7229 6.77945 33.7766 6.81402 33.8199C6.8486 33.8631 6.89694 33.8931 6.95099 33.905C7.16475 34.0238 7.1885 34.1426 7.02224 34.4029C6.85598 34.6633 6.85598 34.9017 7.06975 35.068C7.40501 35.3283 7.8572 35.1867 8.09288 34.7592Z" fill="#00FFB4"/>
<path fill-rule="evenodd" clip-rule="evenodd" d="M17.7163 22.2785C17.1463 22.4448 16.6009 23.0614 16.4374 23.679C16.3461 24.0581 16.3899 24.7469 16.5562 24.9579C16.8174 25.2904 17.055 25.3854 17.7191 25.3854C19.0236 25.3854 20.139 24.8154 20.2577 24.1275C20.3765 23.5584 19.8777 22.7755 19.1898 22.4192C18.8336 22.231 18.0955 22.1607 17.7163 22.2785ZM19.2346 23.4661C19.4246 23.1811 19.3534 22.8732 18.9971 22.6595C18.3576 22.2557 17.3838 22.5882 17.3838 23.2076C17.3838 23.5164 17.8826 23.847 18.3567 23.847C18.6655 23.8425 19.0921 23.6598 19.2346 23.4652V23.4661Z" fill="#00FFB4"/>
<path d="M60.25 19.4543H63.3253V28.9003C63.3253 29.9609 63.072 30.889 62.5653 31.6844C62.0634 32.4799 61.3603 33.1001 60.456 33.5452C59.5516 33.9855 58.4981 34.2057 57.2955 34.2057C56.0881 34.2057 55.0322 33.9855 54.1278 33.5452C53.2235 33.1001 52.5204 32.4799 52.0185 31.6844C51.5166 30.889 51.2656 29.9609 51.2656 28.9003V19.4543H54.3409V28.6375C54.3409 29.1915 54.4616 29.6839 54.7031 30.1148C54.9493 30.5457 55.295 30.8842 55.7401 31.1304C56.1851 31.3766 56.7036 31.4998 57.2955 31.4998C57.892 31.4998 58.4105 31.3766 58.8509 31.1304C59.2959 30.8842 59.6392 30.5457 59.8807 30.1148C60.1269 29.6839 60.25 29.1915 60.25 28.6375V19.4543Z" fill="#00FFB4"/>
<path d="M80.4217 19.4543V33.9998H77.7654L71.4373 24.8449H71.3308V33.9998H68.2555V19.4543H70.9543L77.2327 28.602H77.3606V19.4543H80.4217Z" fill="#00FFB4"/>
<path d="M88.4378 19.4543V33.9998H85.3625V19.4543H88.4378Z" fill="#00FFB4"/>
<path d="M101.259 23.6375C101.202 23.0646 100.958 22.6195 100.527 22.3023C100.096 21.9851 99.5114 21.8265 98.7728 21.8265C98.2709 21.8265 97.8471 21.8975 97.5015 22.0395C97.1558 22.1768 96.8907 22.3686 96.706 22.6148C96.5261 22.861 96.4361 23.1404 96.4361 23.4529C96.4267 23.7133 96.4811 23.9406 96.5995 24.1347C96.7226 24.3288 96.8907 24.4969 97.1038 24.639C97.3168 24.7763 97.563 24.897 97.8424 25.0012C98.1218 25.1006 98.4201 25.1858 98.7373 25.2569L100.044 25.5694C100.679 25.7114 101.261 25.9008 101.791 26.1375C102.322 26.3743 102.781 26.6655 103.169 27.0111C103.557 27.3568 103.858 27.764 104.071 28.2327C104.289 28.7015 104.4 29.2389 104.405 29.8449C104.4 30.7351 104.173 31.5069 103.723 32.1603C103.278 32.8089 102.634 33.3132 101.791 33.673C100.953 34.0282 99.9423 34.2057 98.7586 34.2057C97.5844 34.2057 96.5616 34.0258 95.6904 33.6659C94.8239 33.3061 94.1468 32.7734 93.6592 32.0679C93.1762 31.3577 92.9229 30.4794 92.8992 29.433H95.8751C95.9082 29.9207 96.0479 30.3279 96.2941 30.6546C96.5451 30.9765 96.8789 31.2204 97.2955 31.3861C97.7169 31.5471 98.1928 31.6276 98.7231 31.6276C99.2439 31.6276 99.6961 31.5518 100.08 31.4003C100.468 31.2488 100.769 31.0381 100.982 30.7682C101.195 30.4983 101.301 30.1882 101.301 29.8378C101.301 29.5111 101.204 29.2365 101.01 29.014C100.821 28.7914 100.541 28.602 100.172 28.4458C99.8074 28.2895 99.3599 28.1475 98.8296 28.0196L97.2458 27.6219C96.0195 27.3236 95.0512 26.8572 94.341 26.2228C93.6308 25.5883 93.278 24.7337 93.2827 23.6588C93.278 22.7782 93.5124 22.0087 93.9859 21.3506C94.4641 20.6925 95.1199 20.1787 95.9532 19.8094C96.7865 19.4401 97.7335 19.2554 98.7941 19.2554C99.8737 19.2554 100.816 19.4401 101.621 19.8094C102.43 20.1787 103.06 20.6925 103.51 21.3506C103.96 22.0087 104.192 22.7711 104.206 23.6375H101.259Z" fill="#00FFB4"/>
<path d="M112.148 33.9998L107.986 19.4543H111.345L113.753 29.5608H113.873L116.53 19.4543H119.406L122.055 29.5821H122.183L124.591 19.4543H127.95L123.788 33.9998H120.791L118.021 24.4898H117.908L115.145 33.9998H112.148Z" fill="#00FFB4"/>
<path d="M133.038 33.9998H129.743L134.764 19.4543H138.727L143.741 33.9998H140.446L136.803 22.7782H136.689L133.038 33.9998ZM132.832 28.2824H140.616V30.683H132.832V28.2824Z" fill="#00FFB4"/>
<path d="M147.892 33.9998V19.4543H153.631C154.734 19.4543 155.674 19.665 156.45 20.0864C157.227 20.5031 157.819 21.0831 158.226 21.8265C158.638 22.5651 158.844 23.4174 158.844 24.3833C158.844 25.3492 158.636 26.2015 158.219 26.9401C157.802 27.6787 157.199 28.254 156.408 28.6659C155.622 29.0779 154.67 29.2838 153.553 29.2838H149.895V26.8194H153.056C153.647 26.8194 154.135 26.7176 154.519 26.514C154.907 26.3056 155.196 26.0192 155.385 25.6546C155.579 25.2853 155.676 24.8615 155.676 24.3833C155.676 23.9003 155.579 23.4789 155.385 23.1191C155.196 22.7545 154.907 22.4728 154.519 22.2739C154.13 22.0703 153.638 21.9685 153.041 21.9685H150.967V33.9998H147.892Z" fill="#00FFB4"/>
</svg>
