<svg width="21" height="16" viewBox="0 0 21 16" fill="none" xmlns="http://www.w3.org/2000/svg">
<path d="M17.7773 1.32698C16.4386 0.713687 15.0036 0.260383 13.503 0.0026222C13.4897 1.60717e-05 13.4758 0.00169555 13.4634 0.0074284C13.4511 0.0131612 13.4407 0.0226638 13.4339 0.0346201C13.2502 0.362599 13.0454 0.790126 12.9019 1.12788C11.3104 0.88633 9.69243 0.88633 8.10094 1.12788C7.94111 0.75356 7.76088 0.388574 7.56108 0.0346201C7.5543 0.0225166 7.54406 0.0127991 7.53171 0.00676426C7.51936 0.000729432 7.50549 -0.00133575 7.49195 0.000844454C5.99225 0.258605 4.55729 0.711909 3.2177 1.32609C3.20618 1.331 3.19641 1.33938 3.1897 1.35009C0.466782 5.41649 -0.279571 9.38245 0.087043 13.2986C0.0880632 13.3082 0.090994 13.3175 0.0956571 13.3259C0.10032 13.3343 0.106618 13.3417 0.114167 13.3475C1.70346 14.5229 3.47611 15.4183 5.35789 15.9962C5.37101 16.0003 5.38504 16.0003 5.39815 15.9962C5.41126 15.9921 5.42285 15.984 5.43139 15.9731C5.83632 15.423 6.19515 14.8394 6.50411 14.2284C6.5084 14.22 6.51087 14.2108 6.51135 14.2014C6.51184 14.192 6.51033 14.1826 6.50693 14.1738C6.50353 14.1651 6.49831 14.1571 6.49164 14.1506C6.48496 14.1441 6.47698 14.139 6.46823 14.1359C5.903 13.9197 5.35534 13.6588 4.83028 13.3555C4.82085 13.3501 4.8129 13.3423 4.80714 13.3329C4.80139 13.3236 4.79802 13.3129 4.79732 13.3019C4.79663 13.2909 4.79864 13.2799 4.80317 13.2698C4.8077 13.2598 4.81461 13.2511 4.82328 13.2444C4.93353 13.1618 5.04377 13.0755 5.14877 12.9893C5.15822 12.9816 5.16961 12.9766 5.18166 12.9751C5.19371 12.9735 5.20595 12.9754 5.21702 12.9804C8.65304 14.5483 12.3743 14.5483 15.7701 12.9804C15.7812 12.9751 15.7936 12.973 15.8058 12.9744C15.818 12.9758 15.8296 12.9807 15.8392 12.9884C15.9442 13.0755 16.0536 13.1618 16.1647 13.2444C16.1735 13.2509 16.1805 13.2595 16.1852 13.2695C16.1898 13.2794 16.192 13.2904 16.1915 13.3014C16.191 13.3124 16.1878 13.3231 16.1822 13.3326C16.1766 13.342 16.1688 13.3499 16.1595 13.3555C15.6362 13.6613 15.092 13.9199 14.5206 14.135C14.5119 14.1383 14.5039 14.1434 14.4972 14.15C14.4905 14.1566 14.4853 14.1646 14.4819 14.1734C14.4785 14.1823 14.477 14.1917 14.4775 14.2012C14.478 14.2107 14.4805 14.2199 14.4848 14.2284C14.7997 14.839 15.1602 15.4203 15.5566 15.9722C15.5648 15.9836 15.5763 15.992 15.5895 15.9965C15.6026 16.0009 15.6168 16.0012 15.6301 15.9971C17.5151 15.4208 19.2906 14.525 20.8817 13.3475C20.8895 13.342 20.896 13.3349 20.9008 13.3266C20.9056 13.3183 20.9087 13.3091 20.9097 13.2995C21.3472 8.77182 20.1765 4.83786 17.8044 1.35187C17.7986 1.34054 17.789 1.33171 17.7773 1.32698ZM7.01772 10.9139C5.9835 10.9139 5.1304 9.96375 5.1304 8.79849C5.1304 7.63234 5.96687 6.68307 7.01772 6.68307C8.07644 6.68307 8.92166 7.64034 8.90504 8.79849C8.90504 9.96463 8.06856 10.9139 7.01772 10.9139ZM13.9956 10.9139C12.9605 10.9139 12.1083 9.96375 12.1083 8.79849C12.1083 7.63234 12.9439 6.68307 13.9956 6.68307C15.0544 6.68307 15.8996 7.64034 15.883 8.79849C15.883 9.96463 15.0552 10.9139 13.9956 10.9139Z" fill="#77CFB5"/>
</svg>
